<mxfile host="app.diagrams.net" agent="Mozilla/5.0 (Macintosh; Intel Mac OS X 10_15_7) AppleWebKit/537.36 (KHTML, like Gecko) Chrome/131.0.0.0 Safari/537.36" version="25.0.3">
  <diagram id="C5RBs43oDa-KdzZeNtuy" name="Page-1">
    <mxGraphModel dx="2514" dy="1955" grid="1" gridSize="10" guides="1" tooltips="1" connect="1" arrows="1" fold="1" page="1" pageScale="1" pageWidth="827" pageHeight="1169" math="0" shadow="0">
      <root>
        <mxCell id="WIyWlLk6GJQsqaUBKTNV-0" />
        <mxCell id="WIyWlLk6GJQsqaUBKTNV-1" parent="WIyWlLk6GJQsqaUBKTNV-0" />
        <mxCell id="DnKmSI__Tk8OOLVWlEsf-32" value="&lt;font style=&quot;font-size: 16px;&quot;&gt;Zone de Parking ZP&lt;/font&gt;" style="shape=table;html=1;whiteSpace=wrap;startSize=120;container=1;collapsible=0;childLayout=tableLayout;fillColor=none;swimlaneFillColor=#ffffff;strokeColor=none;" vertex="1" parent="WIyWlLk6GJQsqaUBKTNV-1">
          <mxGeometry x="-60" y="-99" width="1734" height="1970" as="geometry" />
        </mxCell>
        <mxCell id="DnKmSI__Tk8OOLVWlEsf-33" value="" style="shape=partialRectangle;html=1;whiteSpace=wrap;collapsible=0;dropTarget=0;pointerEvents=0;fillColor=none;top=0;left=0;bottom=0;right=0;points=[[0,0.5],[1,0.5]];portConstraint=eastwest;strokeColor=none;" vertex="1" parent="DnKmSI__Tk8OOLVWlEsf-32">
          <mxGeometry y="120" width="1734" height="90" as="geometry" />
        </mxCell>
        <mxCell id="DnKmSI__Tk8OOLVWlEsf-34" value="" style="shape=partialRectangle;html=1;whiteSpace=wrap;connectable=0;fillColor=none;top=1;left=1;bottom=1;right=1;overflow=hidden;strokeColor=none;" vertex="1" parent="DnKmSI__Tk8OOLVWlEsf-33">
          <mxGeometry width="168" height="90" as="geometry">
            <mxRectangle width="168" height="90" as="alternateBounds" />
          </mxGeometry>
        </mxCell>
        <mxCell id="DnKmSI__Tk8OOLVWlEsf-35" value="&lt;font style=&quot;font-size: 16px;&quot;&gt;Employé (E)&lt;/font&gt;" style="shape=partialRectangle;html=1;whiteSpace=wrap;connectable=0;fillColor=none;top=1;left=1;bottom=1;right=1;overflow=hidden;" vertex="1" parent="DnKmSI__Tk8OOLVWlEsf-33">
          <mxGeometry x="168" width="472" height="90" as="geometry">
            <mxRectangle width="472" height="90" as="alternateBounds" />
          </mxGeometry>
        </mxCell>
        <mxCell id="DnKmSI__Tk8OOLVWlEsf-36" value="&lt;font style=&quot;font-size: 16px;&quot;&gt;Sondes de Détection de Mouvements&lt;/font&gt;" style="shape=partialRectangle;html=1;whiteSpace=wrap;connectable=0;fillColor=none;top=1;left=1;bottom=1;right=1;overflow=hidden;" vertex="1" parent="DnKmSI__Tk8OOLVWlEsf-33">
          <mxGeometry x="640" width="472" height="90" as="geometry">
            <mxRectangle width="472" height="90" as="alternateBounds" />
          </mxGeometry>
        </mxCell>
        <mxCell id="DnKmSI__Tk8OOLVWlEsf-45" value="&lt;font style=&quot;font-size: 16px;&quot;&gt;Système de Contrôle d&#39;Etat de la lumière&lt;/font&gt;" style="shape=partialRectangle;html=1;whiteSpace=wrap;connectable=0;fillColor=none;top=1;left=1;bottom=1;right=1;overflow=hidden;" vertex="1" parent="DnKmSI__Tk8OOLVWlEsf-33">
          <mxGeometry x="1112" width="622" height="90" as="geometry">
            <mxRectangle width="622" height="90" as="alternateBounds" />
          </mxGeometry>
        </mxCell>
        <mxCell id="DnKmSI__Tk8OOLVWlEsf-37" value="" style="shape=partialRectangle;html=1;whiteSpace=wrap;collapsible=0;dropTarget=0;pointerEvents=0;fillColor=none;top=1;left=1;bottom=1;right=1;points=[[0,0.5],[1,0.5]];portConstraint=eastwest;" vertex="1" parent="DnKmSI__Tk8OOLVWlEsf-32">
          <mxGeometry y="210" width="1734" height="577" as="geometry" />
        </mxCell>
        <mxCell id="DnKmSI__Tk8OOLVWlEsf-38" value="Entrée du Parking" style="shape=partialRectangle;html=1;whiteSpace=wrap;connectable=0;fillColor=none;top=1;left=1;bottom=1;right=1;overflow=hidden;horizontal=0;" vertex="1" parent="DnKmSI__Tk8OOLVWlEsf-37">
          <mxGeometry width="168" height="577" as="geometry">
            <mxRectangle width="168" height="577" as="alternateBounds" />
          </mxGeometry>
        </mxCell>
        <mxCell id="DnKmSI__Tk8OOLVWlEsf-39" value="" style="shape=partialRectangle;html=1;whiteSpace=wrap;connectable=0;fillColor=none;top=1;left=1;bottom=1;right=1;overflow=hidden;" vertex="1" parent="DnKmSI__Tk8OOLVWlEsf-37">
          <mxGeometry x="168" width="472" height="577" as="geometry">
            <mxRectangle width="472" height="577" as="alternateBounds" />
          </mxGeometry>
        </mxCell>
        <mxCell id="DnKmSI__Tk8OOLVWlEsf-40" value="" style="shape=partialRectangle;html=1;whiteSpace=wrap;connectable=0;fillColor=none;top=1;left=1;bottom=1;right=1;overflow=hidden;" vertex="1" parent="DnKmSI__Tk8OOLVWlEsf-37">
          <mxGeometry x="640" width="472" height="577" as="geometry">
            <mxRectangle width="472" height="577" as="alternateBounds" />
          </mxGeometry>
        </mxCell>
        <mxCell id="DnKmSI__Tk8OOLVWlEsf-46" style="shape=partialRectangle;html=1;whiteSpace=wrap;connectable=0;fillColor=none;top=1;left=1;bottom=1;right=1;overflow=hidden;" vertex="1" parent="DnKmSI__Tk8OOLVWlEsf-37">
          <mxGeometry x="1112" width="622" height="577" as="geometry">
            <mxRectangle width="622" height="577" as="alternateBounds" />
          </mxGeometry>
        </mxCell>
        <mxCell id="DnKmSI__Tk8OOLVWlEsf-41" value="" style="shape=partialRectangle;html=1;whiteSpace=wrap;collapsible=0;dropTarget=0;pointerEvents=0;fillColor=none;top=1;left=1;bottom=1;right=1;points=[[0,0.5],[1,0.5]];portConstraint=eastwest;" vertex="1" parent="DnKmSI__Tk8OOLVWlEsf-32">
          <mxGeometry y="787" width="1734" height="573" as="geometry" />
        </mxCell>
        <mxCell id="DnKmSI__Tk8OOLVWlEsf-42" value="Zone de Manoeuvre" style="shape=partialRectangle;html=1;whiteSpace=wrap;connectable=0;fillColor=none;top=1;left=1;bottom=1;right=1;overflow=hidden;horizontal=0;" vertex="1" parent="DnKmSI__Tk8OOLVWlEsf-41">
          <mxGeometry width="168" height="573" as="geometry">
            <mxRectangle width="168" height="573" as="alternateBounds" />
          </mxGeometry>
        </mxCell>
        <mxCell id="DnKmSI__Tk8OOLVWlEsf-43" value="" style="shape=partialRectangle;html=1;whiteSpace=wrap;connectable=0;fillColor=none;top=1;left=1;bottom=1;right=1;overflow=hidden;" vertex="1" parent="DnKmSI__Tk8OOLVWlEsf-41">
          <mxGeometry x="168" width="472" height="573" as="geometry">
            <mxRectangle width="472" height="573" as="alternateBounds" />
          </mxGeometry>
        </mxCell>
        <mxCell id="DnKmSI__Tk8OOLVWlEsf-44" value="" style="shape=partialRectangle;html=1;whiteSpace=wrap;connectable=0;fillColor=none;top=1;left=1;bottom=1;right=1;overflow=hidden;" vertex="1" parent="DnKmSI__Tk8OOLVWlEsf-41">
          <mxGeometry x="640" width="472" height="573" as="geometry">
            <mxRectangle width="472" height="573" as="alternateBounds" />
          </mxGeometry>
        </mxCell>
        <mxCell id="DnKmSI__Tk8OOLVWlEsf-47" style="shape=partialRectangle;html=1;whiteSpace=wrap;connectable=0;fillColor=none;top=1;left=1;bottom=1;right=1;overflow=hidden;" vertex="1" parent="DnKmSI__Tk8OOLVWlEsf-41">
          <mxGeometry x="1112" width="622" height="573" as="geometry">
            <mxRectangle width="622" height="573" as="alternateBounds" />
          </mxGeometry>
        </mxCell>
        <mxCell id="DnKmSI__Tk8OOLVWlEsf-48" style="shape=partialRectangle;html=1;whiteSpace=wrap;collapsible=0;dropTarget=0;pointerEvents=0;fillColor=none;top=1;left=1;bottom=1;right=1;points=[[0,0.5],[1,0.5]];portConstraint=eastwest;" vertex="1" parent="DnKmSI__Tk8OOLVWlEsf-32">
          <mxGeometry y="1360" width="1734" height="610" as="geometry" />
        </mxCell>
        <mxCell id="DnKmSI__Tk8OOLVWlEsf-49" value="Porte de sortie du parking" style="shape=partialRectangle;html=1;whiteSpace=wrap;connectable=0;fillColor=none;top=1;left=1;bottom=1;right=1;overflow=hidden;horizontal=0;" vertex="1" parent="DnKmSI__Tk8OOLVWlEsf-48">
          <mxGeometry width="168" height="610" as="geometry">
            <mxRectangle width="168" height="610" as="alternateBounds" />
          </mxGeometry>
        </mxCell>
        <mxCell id="DnKmSI__Tk8OOLVWlEsf-50" style="shape=partialRectangle;html=1;whiteSpace=wrap;connectable=0;fillColor=none;top=1;left=1;bottom=1;right=1;overflow=hidden;" vertex="1" parent="DnKmSI__Tk8OOLVWlEsf-48">
          <mxGeometry x="168" width="472" height="610" as="geometry">
            <mxRectangle width="472" height="610" as="alternateBounds" />
          </mxGeometry>
        </mxCell>
        <mxCell id="DnKmSI__Tk8OOLVWlEsf-51" style="shape=partialRectangle;html=1;whiteSpace=wrap;connectable=0;fillColor=none;top=1;left=1;bottom=1;right=1;overflow=hidden;" vertex="1" parent="DnKmSI__Tk8OOLVWlEsf-48">
          <mxGeometry x="640" width="472" height="610" as="geometry">
            <mxRectangle width="472" height="610" as="alternateBounds" />
          </mxGeometry>
        </mxCell>
        <mxCell id="DnKmSI__Tk8OOLVWlEsf-52" style="shape=partialRectangle;html=1;whiteSpace=wrap;connectable=0;fillColor=none;top=1;left=1;bottom=1;right=1;overflow=hidden;" vertex="1" parent="DnKmSI__Tk8OOLVWlEsf-48">
          <mxGeometry x="1112" width="622" height="610" as="geometry">
            <mxRectangle width="622" height="610" as="alternateBounds" />
          </mxGeometry>
        </mxCell>
        <mxCell id="WIyWlLk6GJQsqaUBKTNV-3" value="&lt;font style=&quot;font-size: 16px;&quot;&gt;Entrer dans le parking&lt;/font&gt;" style="rounded=1;whiteSpace=wrap;html=1;fontSize=12;glass=0;strokeWidth=1;shadow=0;" parent="WIyWlLk6GJQsqaUBKTNV-1" vertex="1">
          <mxGeometry x="250" y="150" width="210" height="60" as="geometry" />
        </mxCell>
        <mxCell id="WIyWlLk6GJQsqaUBKTNV-7" value="&lt;font style=&quot;font-size: 16px;&quot;&gt;Detecter mouvement&lt;/font&gt;" style="rounded=1;whiteSpace=wrap;html=1;fontSize=12;glass=0;strokeWidth=1;shadow=0;" parent="WIyWlLk6GJQsqaUBKTNV-1" vertex="1">
          <mxGeometry x="720" y="150" width="210" height="60" as="geometry" />
        </mxCell>
        <mxCell id="WIyWlLk6GJQsqaUBKTNV-11" value="Verifier&amp;nbsp;&lt;br&gt;Installation(Technicein)" style="rounded=1;whiteSpace=wrap;html=1;fontSize=12;glass=0;strokeWidth=1;shadow=0;" parent="WIyWlLk6GJQsqaUBKTNV-1" vertex="1">
          <mxGeometry x="249.75" y="590" width="210" height="60" as="geometry" />
        </mxCell>
        <mxCell id="DnKmSI__Tk8OOLVWlEsf-0" value="Interrupteur&lt;br&gt;Ouvert" style="rounded=0;whiteSpace=wrap;html=1;" vertex="1" parent="WIyWlLk6GJQsqaUBKTNV-1">
          <mxGeometry x="276" y="382" width="158" height="60" as="geometry" />
        </mxCell>
        <mxCell id="DnKmSI__Tk8OOLVWlEsf-5" value="" style="ellipse;fillColor=strokeColor;html=1;" vertex="1" parent="WIyWlLk6GJQsqaUBKTNV-1">
          <mxGeometry x="150" y="165" width="30" height="30" as="geometry" />
        </mxCell>
        <mxCell id="DnKmSI__Tk8OOLVWlEsf-6" value="" style="ellipse;html=1;shape=endState;fillColor=strokeColor;" vertex="1" parent="WIyWlLk6GJQsqaUBKTNV-1">
          <mxGeometry x="150" y="1205" width="30" height="30" as="geometry" />
        </mxCell>
        <mxCell id="DnKmSI__Tk8OOLVWlEsf-25" value="Ampoule &#xa;Allumée?" style="rhombus;fontSize=9;" vertex="1" parent="WIyWlLk6GJQsqaUBKTNV-1">
          <mxGeometry x="320.5" y="490" width="68.5" height="60" as="geometry" />
        </mxCell>
        <mxCell id="DnKmSI__Tk8OOLVWlEsf-26" value="" style="shape=sumEllipse;perimeter=ellipsePerimeter;html=1;backgroundOutline=1;" vertex="1" parent="WIyWlLk6GJQsqaUBKTNV-1">
          <mxGeometry x="150" y="605" width="30" height="30" as="geometry" />
        </mxCell>
        <mxCell id="DnKmSI__Tk8OOLVWlEsf-27" value="" style="html=1;points=[];perimeter=orthogonalPerimeter;fillColor=strokeColor;direction=south;" vertex="1" parent="WIyWlLk6GJQsqaUBKTNV-1">
          <mxGeometry x="1325.5" y="370" width="80" height="5" as="geometry" />
        </mxCell>
        <mxCell id="DnKmSI__Tk8OOLVWlEsf-28" value="lancé CD&lt;div&gt;+120s&lt;/div&gt;" style="shape=mxgraph.uml25.action;html=1;align=center;verticalAlign=middle;absoluteArcSize=1;arcSize=10;dashed=0;spacingRight=10;whiteSpace=wrap;" vertex="1" parent="WIyWlLk6GJQsqaUBKTNV-1">
          <mxGeometry x="1366" y="1200" width="110" height="40" as="geometry" />
        </mxCell>
        <mxCell id="DnKmSI__Tk8OOLVWlEsf-29" value="valeur : dernier &lt;br&gt;enregistrement" style="text;verticalAlign=middle;align=left;html=1;" vertex="1" parent="DnKmSI__Tk8OOLVWlEsf-28">
          <mxGeometry x="110" width="60" height="30" as="geometry" />
        </mxCell>
        <mxCell id="DnKmSI__Tk8OOLVWlEsf-53" value="&lt;font style=&quot;font-size: 16px;&quot;&gt;reception un signal 1&lt;/font&gt;" style="rounded=1;whiteSpace=wrap;html=1;fontSize=12;glass=0;strokeWidth=1;shadow=0;" vertex="1" parent="WIyWlLk6GJQsqaUBKTNV-1">
          <mxGeometry x="1261.5" y="265" width="210" height="60" as="geometry" />
        </mxCell>
        <mxCell id="DnKmSI__Tk8OOLVWlEsf-58" value="" style="html=1;points=[];perimeter=orthogonalPerimeter;fillColor=strokeColor;direction=south;" vertex="1" parent="WIyWlLk6GJQsqaUBKTNV-1">
          <mxGeometry x="1328.5" y="950" width="80" height="5" as="geometry" />
        </mxCell>
        <mxCell id="DnKmSI__Tk8OOLVWlEsf-59" value="&lt;font style=&quot;font-size: 16px;&quot;&gt;Commande&amp;nbsp;&lt;br&gt;Ouvrir interrupteur&lt;/font&gt;" style="rounded=1;whiteSpace=wrap;html=1;fontSize=12;glass=0;strokeWidth=1;shadow=0;" vertex="1" parent="WIyWlLk6GJQsqaUBKTNV-1">
          <mxGeometry x="1105" y="360" width="170" height="100" as="geometry" />
        </mxCell>
        <mxCell id="DnKmSI__Tk8OOLVWlEsf-61" value="Detecter mouvement" style="rounded=1;whiteSpace=wrap;html=1;fontSize=12;glass=0;strokeWidth=1;shadow=0;" vertex="1" parent="WIyWlLk6GJQsqaUBKTNV-1">
          <mxGeometry x="720" y="730" width="210" height="60" as="geometry" />
        </mxCell>
        <mxCell id="DnKmSI__Tk8OOLVWlEsf-62" value="Manoeuvrer/Marcher&lt;br&gt;Dans la Zone de parking" style="rounded=1;whiteSpace=wrap;html=1;fontSize=12;glass=0;strokeWidth=1;shadow=0;" vertex="1" parent="WIyWlLk6GJQsqaUBKTNV-1">
          <mxGeometry x="250" y="730" width="210" height="60" as="geometry" />
        </mxCell>
        <mxCell id="DnKmSI__Tk8OOLVWlEsf-63" value="E" style="ellipse;" vertex="1" parent="WIyWlLk6GJQsqaUBKTNV-1">
          <mxGeometry x="150" y="746" width="30" height="30" as="geometry" />
        </mxCell>
        <mxCell id="DnKmSI__Tk8OOLVWlEsf-65" value="Reception &#xa;signal 2 ?" style="rhombus;" vertex="1" parent="WIyWlLk6GJQsqaUBKTNV-1">
          <mxGeometry x="1315.5" y="720" width="100" height="100" as="geometry" />
        </mxCell>
        <mxCell id="DnKmSI__Tk8OOLVWlEsf-66" value="Commande&amp;nbsp;&lt;br&gt;Fermer interrupteur" style="rounded=1;whiteSpace=wrap;html=1;fontSize=12;glass=0;strokeWidth=1;shadow=0;" vertex="1" parent="WIyWlLk6GJQsqaUBKTNV-1">
          <mxGeometry x="1130" y="1200" width="120" height="40" as="geometry" />
        </mxCell>
        <mxCell id="DnKmSI__Tk8OOLVWlEsf-67" value="Commande&amp;nbsp;&lt;br&gt;Ouvrir interrupteur" style="rounded=1;whiteSpace=wrap;html=1;fontSize=12;glass=0;strokeWidth=1;shadow=0;" vertex="1" parent="WIyWlLk6GJQsqaUBKTNV-1">
          <mxGeometry x="1130" y="1043" width="120" height="40" as="geometry" />
        </mxCell>
        <mxCell id="DnKmSI__Tk8OOLVWlEsf-68" value="Signal &#xa;Emis?" style="rhombus;" vertex="1" parent="WIyWlLk6GJQsqaUBKTNV-1">
          <mxGeometry x="775" y="851" width="100" height="100" as="geometry" />
        </mxCell>
        <mxCell id="DnKmSI__Tk8OOLVWlEsf-69" value="Signal 1&#xa;Emis?" style="rhombus;fontStyle=1" vertex="1" parent="WIyWlLk6GJQsqaUBKTNV-1">
          <mxGeometry x="775" y="245" width="100" height="100" as="geometry" />
        </mxCell>
        <mxCell id="DnKmSI__Tk8OOLVWlEsf-70" value="" style="shape=sumEllipse;perimeter=ellipsePerimeter;html=1;backgroundOutline=1;" vertex="1" parent="WIyWlLk6GJQsqaUBKTNV-1">
          <mxGeometry x="650" y="280" width="30" height="30" as="geometry" />
        </mxCell>
        <mxCell id="DnKmSI__Tk8OOLVWlEsf-71" value="reception un signal 2" style="rounded=1;whiteSpace=wrap;html=1;fontSize=12;glass=0;strokeWidth=1;shadow=0;" vertex="1" parent="WIyWlLk6GJQsqaUBKTNV-1">
          <mxGeometry x="1260.5" y="870" width="210" height="60" as="geometry" />
        </mxCell>
        <mxCell id="DnKmSI__Tk8OOLVWlEsf-72" value="Parking&#xa;Sous-Terrain&#xa;Déclaré?" style="rhombus;" vertex="1" parent="WIyWlLk6GJQsqaUBKTNV-1">
          <mxGeometry x="1540" y="1329" width="100" height="100" as="geometry" />
        </mxCell>
        <mxCell id="DnKmSI__Tk8OOLVWlEsf-73" value="Interrupteur&lt;br&gt;Ouvert" style="rounded=0;whiteSpace=wrap;html=1;" vertex="1" parent="WIyWlLk6GJQsqaUBKTNV-1">
          <mxGeometry x="301.75" y="1043" width="106" height="40" as="geometry" />
        </mxCell>
        <mxCell id="DnKmSI__Tk8OOLVWlEsf-74" value="Interrupteur&lt;br&gt;Fermé" style="rounded=0;whiteSpace=wrap;html=1;" vertex="1" parent="WIyWlLk6GJQsqaUBKTNV-1">
          <mxGeometry x="302" y="1200" width="106" height="40" as="geometry" />
        </mxCell>
        <mxCell id="DnKmSI__Tk8OOLVWlEsf-75" value="Sortir du parking&lt;br&gt;Par une porte sous-terraine" style="rounded=1;whiteSpace=wrap;html=1;fontSize=12;glass=0;strokeWidth=1;shadow=0;" vertex="1" parent="WIyWlLk6GJQsqaUBKTNV-1">
          <mxGeometry x="296" y="1302" width="170" height="60" as="geometry" />
        </mxCell>
        <mxCell id="DnKmSI__Tk8OOLVWlEsf-76" value="E" style="ellipse;" vertex="1" parent="WIyWlLk6GJQsqaUBKTNV-1">
          <mxGeometry x="210" y="1317" width="30" height="30" as="geometry" />
        </mxCell>
        <mxCell id="DnKmSI__Tk8OOLVWlEsf-77" value="" style="endArrow=block;startArrow=block;endFill=1;startFill=1;html=1;rounded=0;exitX=1;exitY=0.5;exitDx=0;exitDy=0;entryX=0;entryY=0.5;entryDx=0;entryDy=0;" edge="1" source="DnKmSI__Tk8OOLVWlEsf-76" target="DnKmSI__Tk8OOLVWlEsf-75" parent="WIyWlLk6GJQsqaUBKTNV-1">
          <mxGeometry width="160" relative="1" as="geometry">
            <mxPoint x="670" y="1520" as="sourcePoint" />
            <mxPoint x="830" y="1520" as="targetPoint" />
          </mxGeometry>
        </mxCell>
        <mxCell id="DnKmSI__Tk8OOLVWlEsf-78" value="Detecter mouvement" style="rounded=1;whiteSpace=wrap;html=1;fontSize=12;glass=0;strokeWidth=1;shadow=0;" vertex="1" parent="WIyWlLk6GJQsqaUBKTNV-1">
          <mxGeometry x="725" y="1300" width="210" height="60" as="geometry" />
        </mxCell>
        <mxCell id="DnKmSI__Tk8OOLVWlEsf-79" value="Signal 3&#xa;Emis?" style="rhombus;" vertex="1" parent="WIyWlLk6GJQsqaUBKTNV-1">
          <mxGeometry x="776" y="1419" width="100" height="100" as="geometry" />
        </mxCell>
        <mxCell id="DnKmSI__Tk8OOLVWlEsf-80" value="reception un signal 3" style="rounded=1;whiteSpace=wrap;html=1;fontSize=12;glass=0;strokeWidth=1;shadow=0;" vertex="1" parent="WIyWlLk6GJQsqaUBKTNV-1">
          <mxGeometry x="1116" y="1439" width="210" height="60" as="geometry" />
        </mxCell>
        <mxCell id="DnKmSI__Tk8OOLVWlEsf-81" value="Reception &#xa;signal 3 ?" style="rhombus;" vertex="1" parent="WIyWlLk6GJQsqaUBKTNV-1">
          <mxGeometry x="1376" y="1329" width="100" height="100" as="geometry" />
        </mxCell>
        <mxCell id="DnKmSI__Tk8OOLVWlEsf-83" value="Commande&amp;nbsp;&lt;br&gt;Fermer interrupteur" style="rounded=1;whiteSpace=wrap;html=1;fontSize=12;glass=0;strokeWidth=1;shadow=0;" vertex="1" parent="WIyWlLk6GJQsqaUBKTNV-1">
          <mxGeometry x="1150" y="1789" width="120" height="40" as="geometry" />
        </mxCell>
        <mxCell id="DnKmSI__Tk8OOLVWlEsf-84" value="Commande&amp;nbsp;&lt;br&gt;Ouvrir interrupteur" style="rounded=1;whiteSpace=wrap;html=1;fontSize=12;glass=0;strokeWidth=1;shadow=0;" vertex="1" parent="WIyWlLk6GJQsqaUBKTNV-1">
          <mxGeometry x="1149" y="1639" width="120" height="40" as="geometry" />
        </mxCell>
        <mxCell id="DnKmSI__Tk8OOLVWlEsf-86" value="lancé CD&lt;div&gt;+120s&lt;/div&gt;" style="shape=mxgraph.uml25.action;html=1;align=center;verticalAlign=middle;absoluteArcSize=1;arcSize=10;dashed=0;spacingRight=10;whiteSpace=wrap;" vertex="1" parent="WIyWlLk6GJQsqaUBKTNV-1">
          <mxGeometry x="1334.25" y="1788" width="110" height="40" as="geometry" />
        </mxCell>
        <mxCell id="DnKmSI__Tk8OOLVWlEsf-87" value="valeur : dernier &lt;br&gt;enregistrement" style="text;verticalAlign=middle;align=left;html=1;" vertex="1" parent="DnKmSI__Tk8OOLVWlEsf-86">
          <mxGeometry x="110" width="60" height="30" as="geometry" />
        </mxCell>
        <mxCell id="DnKmSI__Tk8OOLVWlEsf-132" value="" style="endArrow=open;endFill=1;endSize=12;html=1;rounded=0;exitX=0.5;exitY=1;exitDx=0;exitDy=0;" edge="1" parent="DnKmSI__Tk8OOLVWlEsf-86" source="DnKmSI__Tk8OOLVWlEsf-131">
          <mxGeometry width="160" relative="1" as="geometry">
            <mxPoint x="50.070000000000164" y="-65" as="sourcePoint" />
            <mxPoint x="54.5" y="1" as="targetPoint" />
          </mxGeometry>
        </mxCell>
        <mxCell id="DnKmSI__Tk8OOLVWlEsf-88" value="" style="endArrow=open;endFill=1;endSize=12;html=1;rounded=0;exitX=0.5;exitY=1;exitDx=0;exitDy=0;" edge="1" parent="WIyWlLk6GJQsqaUBKTNV-1" source="DnKmSI__Tk8OOLVWlEsf-5">
          <mxGeometry width="160" relative="1" as="geometry">
            <mxPoint x="90" y="178.89" as="sourcePoint" />
            <mxPoint x="250" y="178.89" as="targetPoint" />
            <Array as="points">
              <mxPoint x="175" y="179" />
            </Array>
          </mxGeometry>
        </mxCell>
        <mxCell id="DnKmSI__Tk8OOLVWlEsf-89" value="" style="endArrow=open;endFill=1;endSize=12;html=1;rounded=0;entryX=1;entryY=0.5;entryDx=0;entryDy=0;exitX=0;exitY=0.5;exitDx=0;exitDy=0;" edge="1" parent="WIyWlLk6GJQsqaUBKTNV-1" source="WIyWlLk6GJQsqaUBKTNV-11" target="DnKmSI__Tk8OOLVWlEsf-26">
          <mxGeometry width="160" relative="1" as="geometry">
            <mxPoint x="490" y="550" as="sourcePoint" />
            <mxPoint x="750" y="551.1100000000002" as="targetPoint" />
          </mxGeometry>
        </mxCell>
        <mxCell id="DnKmSI__Tk8OOLVWlEsf-90" value="" style="endArrow=open;endFill=1;endSize=12;html=1;rounded=0;exitX=0.5;exitY=1;exitDx=0;exitDy=0;entryX=0.5;entryY=0;entryDx=0;entryDy=0;" edge="1" parent="WIyWlLk6GJQsqaUBKTNV-1" source="WIyWlLk6GJQsqaUBKTNV-7" target="DnKmSI__Tk8OOLVWlEsf-69">
          <mxGeometry width="160" relative="1" as="geometry">
            <mxPoint x="1010" y="600" as="sourcePoint" />
            <mxPoint x="1170" y="600" as="targetPoint" />
          </mxGeometry>
        </mxCell>
        <mxCell id="DnKmSI__Tk8OOLVWlEsf-93" value="" style="endArrow=none;startArrow=none;endFill=0;startFill=0;endSize=8;html=1;verticalAlign=bottom;labelBackgroundColor=none;strokeWidth=1;rounded=0;exitX=0.5;exitY=1;exitDx=0;exitDy=0;startSize=9;entryX=0.696;entryY=0.483;entryDx=0;entryDy=0;entryPerimeter=0;" edge="1" parent="WIyWlLk6GJQsqaUBKTNV-1">
          <mxGeometry width="160" relative="1" as="geometry">
            <mxPoint x="1367.5" y="325" as="sourcePoint" />
            <mxPoint x="1367.8599999999997" y="373.48" as="targetPoint" />
          </mxGeometry>
        </mxCell>
        <mxCell id="DnKmSI__Tk8OOLVWlEsf-94" value="" style="endArrow=none;startArrow=none;endFill=0;startFill=0;endSize=8;html=1;verticalAlign=bottom;labelBackgroundColor=none;strokeWidth=1;rounded=0;exitX=0.5;exitY=1;exitDx=0;exitDy=0;entryX=1;entryY=0.5;entryDx=0;entryDy=0;" edge="1" parent="WIyWlLk6GJQsqaUBKTNV-1" target="DnKmSI__Tk8OOLVWlEsf-59">
          <mxGeometry width="160" relative="1" as="geometry">
            <mxPoint x="1351.48" y="370" as="sourcePoint" />
            <mxPoint x="1350.48" y="417" as="targetPoint" />
            <Array as="points">
              <mxPoint x="1351" y="410" />
            </Array>
          </mxGeometry>
        </mxCell>
        <mxCell id="DnKmSI__Tk8OOLVWlEsf-95" value="" style="endArrow=none;startArrow=none;endFill=0;startFill=0;endSize=8;html=1;verticalAlign=bottom;labelBackgroundColor=none;strokeWidth=1;rounded=0;exitX=0.5;exitY=1;exitDx=0;exitDy=0;entryX=0.5;entryY=0;entryDx=0;entryDy=0;" edge="1" parent="WIyWlLk6GJQsqaUBKTNV-1">
          <mxGeometry width="160" relative="1" as="geometry">
            <mxPoint x="1367.05" y="375" as="sourcePoint" />
            <mxPoint x="1366.5" y="720" as="targetPoint" />
          </mxGeometry>
        </mxCell>
        <mxCell id="DnKmSI__Tk8OOLVWlEsf-96" value="" style="endArrow=open;endFill=1;endSize=12;html=1;rounded=0;entryX=1;entryY=0.5;entryDx=0;entryDy=0;exitX=1;exitY=0.5;exitDx=0;exitDy=0;" edge="1" parent="WIyWlLk6GJQsqaUBKTNV-1" source="DnKmSI__Tk8OOLVWlEsf-65" target="DnKmSI__Tk8OOLVWlEsf-113">
          <mxGeometry width="160" relative="1" as="geometry">
            <mxPoint x="1440" y="770" as="sourcePoint" />
            <mxPoint x="1470.5" y="1100" as="targetPoint" />
            <Array as="points">
              <mxPoint x="1520" y="770" />
              <mxPoint x="1520" y="1060" />
            </Array>
          </mxGeometry>
        </mxCell>
        <mxCell id="DnKmSI__Tk8OOLVWlEsf-97" value="NON" style="edgeLabel;html=1;align=center;verticalAlign=middle;resizable=0;points=[];" vertex="1" connectable="0" parent="DnKmSI__Tk8OOLVWlEsf-96">
          <mxGeometry x="-0.0687" y="3" relative="1" as="geometry">
            <mxPoint as="offset" />
          </mxGeometry>
        </mxCell>
        <mxCell id="DnKmSI__Tk8OOLVWlEsf-98" value="" style="endArrow=open;endFill=1;endSize=12;html=1;rounded=0;exitX=1;exitY=0.5;exitDx=0;exitDy=0;entryX=0;entryY=0.5;entryDx=0;entryDy=0;" edge="1" parent="WIyWlLk6GJQsqaUBKTNV-1" source="DnKmSI__Tk8OOLVWlEsf-69" target="DnKmSI__Tk8OOLVWlEsf-53">
          <mxGeometry width="160" relative="1" as="geometry">
            <mxPoint x="960" y="280" as="sourcePoint" />
            <mxPoint x="1120" y="280" as="targetPoint" />
          </mxGeometry>
        </mxCell>
        <mxCell id="DnKmSI__Tk8OOLVWlEsf-99" value="OUI" style="edgeLabel;html=1;align=center;verticalAlign=middle;resizable=0;points=[];" vertex="1" connectable="0" parent="DnKmSI__Tk8OOLVWlEsf-98">
          <mxGeometry x="-0.3401" relative="1" as="geometry">
            <mxPoint x="-68" as="offset" />
          </mxGeometry>
        </mxCell>
        <mxCell id="DnKmSI__Tk8OOLVWlEsf-100" value="" style="endArrow=open;endFill=1;endSize=12;html=1;rounded=0;exitX=0;exitY=0.5;exitDx=0;exitDy=0;entryX=1;entryY=0.5;entryDx=0;entryDy=0;" edge="1" parent="WIyWlLk6GJQsqaUBKTNV-1" source="DnKmSI__Tk8OOLVWlEsf-69" target="DnKmSI__Tk8OOLVWlEsf-70">
          <mxGeometry width="160" relative="1" as="geometry">
            <mxPoint x="960" y="280" as="sourcePoint" />
            <mxPoint x="1120" y="280" as="targetPoint" />
          </mxGeometry>
        </mxCell>
        <mxCell id="DnKmSI__Tk8OOLVWlEsf-101" value="NON" style="edgeLabel;html=1;align=center;verticalAlign=middle;resizable=0;points=[];" vertex="1" connectable="0" parent="DnKmSI__Tk8OOLVWlEsf-100">
          <mxGeometry x="0.4892" y="-2" relative="1" as="geometry">
            <mxPoint x="25" y="2" as="offset" />
          </mxGeometry>
        </mxCell>
        <mxCell id="DnKmSI__Tk8OOLVWlEsf-102" value="" style="endArrow=open;endFill=1;endSize=12;html=1;rounded=0;entryX=0.5;entryY=1;entryDx=0;entryDy=0;exitX=0.5;exitY=0;exitDx=0;exitDy=0;" edge="1" parent="WIyWlLk6GJQsqaUBKTNV-1" source="DnKmSI__Tk8OOLVWlEsf-71" target="DnKmSI__Tk8OOLVWlEsf-65">
          <mxGeometry width="160" relative="1" as="geometry">
            <mxPoint x="960" y="840" as="sourcePoint" />
            <mxPoint x="1120" y="840" as="targetPoint" />
          </mxGeometry>
        </mxCell>
        <mxCell id="DnKmSI__Tk8OOLVWlEsf-104" value="OUI" style="edgeLabel;html=1;align=center;verticalAlign=middle;resizable=0;points=[];" vertex="1" connectable="0" parent="DnKmSI__Tk8OOLVWlEsf-102">
          <mxGeometry x="-0.4783" y="-1" relative="1" as="geometry">
            <mxPoint y="-6" as="offset" />
          </mxGeometry>
        </mxCell>
        <mxCell id="DnKmSI__Tk8OOLVWlEsf-103" value="" style="endArrow=open;endFill=1;endSize=12;html=1;rounded=0;entryX=0;entryY=0.5;entryDx=0;entryDy=0;exitX=1;exitY=0.5;exitDx=0;exitDy=0;" edge="1" parent="WIyWlLk6GJQsqaUBKTNV-1" source="DnKmSI__Tk8OOLVWlEsf-68" target="DnKmSI__Tk8OOLVWlEsf-71">
          <mxGeometry width="160" relative="1" as="geometry">
            <mxPoint x="910" y="900" as="sourcePoint" />
            <mxPoint x="1120" y="830" as="targetPoint" />
          </mxGeometry>
        </mxCell>
        <mxCell id="DnKmSI__Tk8OOLVWlEsf-105" value="OUI" style="edgeLabel;html=1;align=center;verticalAlign=middle;resizable=0;points=[];" vertex="1" connectable="0" parent="DnKmSI__Tk8OOLVWlEsf-103">
          <mxGeometry x="-0.7308" relative="1" as="geometry">
            <mxPoint as="offset" />
          </mxGeometry>
        </mxCell>
        <mxCell id="DnKmSI__Tk8OOLVWlEsf-106" value="" style="endArrow=open;endFill=1;endSize=12;html=1;rounded=0;entryX=1;entryY=0.5;entryDx=0;entryDy=0;exitX=0;exitY=0.5;exitDx=0;exitDy=0;" edge="1" target="DnKmSI__Tk8OOLVWlEsf-108" parent="WIyWlLk6GJQsqaUBKTNV-1" source="DnKmSI__Tk8OOLVWlEsf-68">
          <mxGeometry width="160" relative="1" as="geometry">
            <mxPoint x="770" y="901" as="sourcePoint" />
            <mxPoint x="1125" y="886" as="targetPoint" />
          </mxGeometry>
        </mxCell>
        <mxCell id="DnKmSI__Tk8OOLVWlEsf-107" value="NON" style="edgeLabel;html=1;align=center;verticalAlign=middle;resizable=0;points=[];" vertex="1" connectable="0" parent="DnKmSI__Tk8OOLVWlEsf-106">
          <mxGeometry x="0.4892" y="-2" relative="1" as="geometry">
            <mxPoint x="25" y="2" as="offset" />
          </mxGeometry>
        </mxCell>
        <mxCell id="DnKmSI__Tk8OOLVWlEsf-108" value="" style="shape=sumEllipse;perimeter=ellipsePerimeter;html=1;backgroundOutline=1;" vertex="1" parent="WIyWlLk6GJQsqaUBKTNV-1">
          <mxGeometry x="655" y="886" width="30" height="30" as="geometry" />
        </mxCell>
        <mxCell id="DnKmSI__Tk8OOLVWlEsf-109" value="" style="endArrow=open;endFill=1;endSize=12;html=1;rounded=0;exitX=0.5;exitY=1;exitDx=0;exitDy=0;entryX=0.5;entryY=0;entryDx=0;entryDy=0;" edge="1" parent="WIyWlLk6GJQsqaUBKTNV-1" source="DnKmSI__Tk8OOLVWlEsf-61" target="DnKmSI__Tk8OOLVWlEsf-68">
          <mxGeometry width="160" relative="1" as="geometry">
            <mxPoint x="780" y="480" as="sourcePoint" />
            <mxPoint x="685" y="480" as="targetPoint" />
          </mxGeometry>
        </mxCell>
        <mxCell id="DnKmSI__Tk8OOLVWlEsf-111" value="" style="endArrow=open;endFill=1;endSize=12;html=1;rounded=0;entryX=0;entryY=0.5;entryDx=0;entryDy=0;exitX=1;exitY=0.5;exitDx=0;exitDy=0;" edge="1" parent="WIyWlLk6GJQsqaUBKTNV-1" source="DnKmSI__Tk8OOLVWlEsf-62">
          <mxGeometry width="160" relative="1" as="geometry">
            <mxPoint x="460" y="759.45" as="sourcePoint" />
            <mxPoint x="720" y="760.56" as="targetPoint" />
          </mxGeometry>
        </mxCell>
        <mxCell id="DnKmSI__Tk8OOLVWlEsf-113" value="&lt;span style=&quot;font-size: 14px;&quot;&gt;Action : Enregistrer HH:MM:SS du signal reçu&lt;/span&gt;" style="rounded=1;whiteSpace=wrap;html=1;fontSize=12;glass=0;strokeWidth=1;shadow=0;" vertex="1" parent="WIyWlLk6GJQsqaUBKTNV-1">
          <mxGeometry x="1372" y="1015" width="98.5" height="90" as="geometry" />
        </mxCell>
        <mxCell id="DnKmSI__Tk8OOLVWlEsf-114" value="" style="endArrow=open;endFill=1;endSize=12;html=1;rounded=0;exitX=0.5;exitY=1;exitDx=0;exitDy=0;" edge="1" parent="WIyWlLk6GJQsqaUBKTNV-1" target="DnKmSI__Tk8OOLVWlEsf-28">
          <mxGeometry width="160" relative="1" as="geometry">
            <mxPoint x="1420.8200000000002" y="1105" as="sourcePoint" />
            <mxPoint x="1420.8200000000002" y="1166" as="targetPoint" />
          </mxGeometry>
        </mxCell>
        <mxCell id="DnKmSI__Tk8OOLVWlEsf-115" value="" style="endArrow=open;endFill=1;endSize=12;html=1;rounded=0;entryX=0.5;entryY=0;entryDx=0;entryDy=0;exitX=0.412;exitY=0.767;exitDx=0;exitDy=0;exitPerimeter=0;" edge="1" parent="WIyWlLk6GJQsqaUBKTNV-1" source="DnKmSI__Tk8OOLVWlEsf-58" target="DnKmSI__Tk8OOLVWlEsf-67">
          <mxGeometry width="160" relative="1" as="geometry">
            <mxPoint x="1340" y="970" as="sourcePoint" />
            <mxPoint x="1190" y="1040" as="targetPoint" />
            <Array as="points">
              <mxPoint x="1347" y="1010" />
              <mxPoint x="1190" y="1010" />
            </Array>
          </mxGeometry>
        </mxCell>
        <mxCell id="DnKmSI__Tk8OOLVWlEsf-117" value="" style="endArrow=open;endFill=1;endSize=12;html=1;rounded=0;entryX=1;entryY=0.5;entryDx=0;entryDy=0;" edge="1" parent="WIyWlLk6GJQsqaUBKTNV-1" target="DnKmSI__Tk8OOLVWlEsf-66">
          <mxGeometry width="160" relative="1" as="geometry">
            <mxPoint x="1368" y="1220" as="sourcePoint" />
            <mxPoint x="1270" y="1260" as="targetPoint" />
          </mxGeometry>
        </mxCell>
        <mxCell id="DnKmSI__Tk8OOLVWlEsf-118" value="" style="endArrow=open;startArrow=none;endFill=0;startFill=0;endSize=8;html=1;verticalAlign=bottom;labelBackgroundColor=none;strokeWidth=1;rounded=0;exitX=1;exitY=0.5;exitDx=0;exitDy=0;" edge="1" parent="WIyWlLk6GJQsqaUBKTNV-1" source="DnKmSI__Tk8OOLVWlEsf-25">
          <mxGeometry width="160" relative="1" as="geometry">
            <mxPoint x="560" y="380" as="sourcePoint" />
            <mxPoint x="355" y="470" as="targetPoint" />
            <Array as="points">
              <mxPoint x="440" y="520" />
              <mxPoint x="440" y="470" />
            </Array>
          </mxGeometry>
        </mxCell>
        <mxCell id="DnKmSI__Tk8OOLVWlEsf-122" value="OUI" style="edgeLabel;html=1;align=center;verticalAlign=middle;resizable=0;points=[];rotation=0;" vertex="1" connectable="0" parent="DnKmSI__Tk8OOLVWlEsf-118">
          <mxGeometry x="-0.0435" y="-1" relative="1" as="geometry">
            <mxPoint y="18" as="offset" />
          </mxGeometry>
        </mxCell>
        <mxCell id="DnKmSI__Tk8OOLVWlEsf-119" value="" style="endArrow=open;startArrow=none;endFill=0;startFill=0;endSize=8;html=1;verticalAlign=bottom;labelBackgroundColor=none;strokeWidth=1;rounded=0;exitX=0.5;exitY=1;exitDx=0;exitDy=0;entryX=0.5;entryY=0;entryDx=0;entryDy=0;" edge="1" parent="WIyWlLk6GJQsqaUBKTNV-1" source="DnKmSI__Tk8OOLVWlEsf-25" target="WIyWlLk6GJQsqaUBKTNV-11">
          <mxGeometry width="160" relative="1" as="geometry">
            <mxPoint x="490" y="550" as="sourcePoint" />
            <mxPoint x="504" y="440" as="targetPoint" />
          </mxGeometry>
        </mxCell>
        <mxCell id="DnKmSI__Tk8OOLVWlEsf-121" value="NON" style="edgeLabel;html=1;align=center;verticalAlign=middle;resizable=0;points=[];" vertex="1" connectable="0" parent="DnKmSI__Tk8OOLVWlEsf-119">
          <mxGeometry x="-0.3913" y="1" relative="1" as="geometry">
            <mxPoint as="offset" />
          </mxGeometry>
        </mxCell>
        <mxCell id="DnKmSI__Tk8OOLVWlEsf-120" value="" style="endArrow=none;startArrow=none;endFill=0;startFill=0;endSize=8;html=1;verticalAlign=bottom;labelBackgroundColor=none;strokeWidth=1;rounded=0;exitX=0.5;exitY=1;exitDx=0;exitDy=0;entryX=0.5;entryY=0;entryDx=0;entryDy=0;" edge="1" parent="WIyWlLk6GJQsqaUBKTNV-1" source="DnKmSI__Tk8OOLVWlEsf-0" target="DnKmSI__Tk8OOLVWlEsf-25">
          <mxGeometry width="160" relative="1" as="geometry">
            <mxPoint x="560" y="380" as="sourcePoint" />
            <mxPoint x="720" y="380" as="targetPoint" />
          </mxGeometry>
        </mxCell>
        <mxCell id="DnKmSI__Tk8OOLVWlEsf-123" value="" style="endArrow=open;endFill=1;endSize=12;html=1;rounded=0;exitX=1;exitY=0.5;exitDx=0;exitDy=0;entryX=0;entryY=0.5;entryDx=0;entryDy=0;" edge="1" parent="WIyWlLk6GJQsqaUBKTNV-1" source="WIyWlLk6GJQsqaUBKTNV-3" target="WIyWlLk6GJQsqaUBKTNV-7">
          <mxGeometry width="160" relative="1" as="geometry">
            <mxPoint x="370" y="240" as="sourcePoint" />
            <mxPoint x="445" y="298.89" as="targetPoint" />
            <Array as="points" />
          </mxGeometry>
        </mxCell>
        <mxCell id="DnKmSI__Tk8OOLVWlEsf-124" value="" style="endArrow=open;endFill=1;endSize=12;html=1;rounded=0;exitX=0.5;exitY=1;exitDx=0;exitDy=0;entryX=0.5;entryY=0;entryDx=0;entryDy=0;" edge="1" parent="WIyWlLk6GJQsqaUBKTNV-1" target="DnKmSI__Tk8OOLVWlEsf-113">
          <mxGeometry width="160" relative="1" as="geometry">
            <mxPoint x="1390.0000000000002" y="954.5" as="sourcePoint" />
            <mxPoint x="1390.0000000000002" y="1015.5" as="targetPoint" />
            <Array as="points">
              <mxPoint x="1390" y="990" />
              <mxPoint x="1421" y="990" />
            </Array>
          </mxGeometry>
        </mxCell>
        <mxCell id="DnKmSI__Tk8OOLVWlEsf-126" value="" style="endArrow=open;endFill=1;endSize=12;html=1;rounded=0;exitX=1;exitY=0.5;exitDx=0;exitDy=0;entryX=0;entryY=0.5;entryDx=0;entryDy=0;" edge="1" parent="WIyWlLk6GJQsqaUBKTNV-1" source="DnKmSI__Tk8OOLVWlEsf-75" target="DnKmSI__Tk8OOLVWlEsf-78">
          <mxGeometry width="160" relative="1" as="geometry">
            <mxPoint x="480.0000000000002" y="1358" as="sourcePoint" />
            <mxPoint x="480.0000000000002" y="1419" as="targetPoint" />
          </mxGeometry>
        </mxCell>
        <mxCell id="DnKmSI__Tk8OOLVWlEsf-127" value="" style="endArrow=open;endFill=1;endSize=12;html=1;rounded=0;exitX=0.5;exitY=1;exitDx=0;exitDy=0;entryX=0.5;entryY=0;entryDx=0;entryDy=0;" edge="1" parent="WIyWlLk6GJQsqaUBKTNV-1" target="DnKmSI__Tk8OOLVWlEsf-81">
          <mxGeometry width="160" relative="1" as="geometry">
            <mxPoint x="1365.0700000000002" y="955" as="sourcePoint" />
            <mxPoint x="1365.0700000000002" y="1016" as="targetPoint" />
            <Array as="points">
              <mxPoint x="1366" y="1050" />
              <mxPoint x="1290" y="1050" />
              <mxPoint x="1290" y="1300" />
              <mxPoint x="1426" y="1300" />
            </Array>
          </mxGeometry>
        </mxCell>
        <mxCell id="DnKmSI__Tk8OOLVWlEsf-128" value="" style="endArrow=none;startArrow=none;endFill=0;startFill=0;endSize=8;html=1;verticalAlign=bottom;labelBackgroundColor=none;strokeWidth=1;rounded=0;startSize=9;entryX=0.696;entryY=0.537;entryDx=0;entryDy=0;entryPerimeter=0;exitX=0.5;exitY=1;exitDx=0;exitDy=0;" edge="1" parent="WIyWlLk6GJQsqaUBKTNV-1" source="DnKmSI__Tk8OOLVWlEsf-71" target="DnKmSI__Tk8OOLVWlEsf-58">
          <mxGeometry width="160" relative="1" as="geometry">
            <mxPoint x="1366" y="940" as="sourcePoint" />
            <mxPoint x="1366.4299999999998" y="955" as="targetPoint" />
          </mxGeometry>
        </mxCell>
        <mxCell id="DnKmSI__Tk8OOLVWlEsf-129" value="" style="endArrow=open;endFill=1;endSize=12;html=1;rounded=0;exitX=0.696;exitY=0.322;exitDx=0;exitDy=0;exitPerimeter=0;" edge="1" parent="WIyWlLk6GJQsqaUBKTNV-1" source="DnKmSI__Tk8OOLVWlEsf-142" target="DnKmSI__Tk8OOLVWlEsf-131">
          <mxGeometry width="160" relative="1" as="geometry">
            <mxPoint x="1390.0000000000002" y="1575.02" as="sourcePoint" />
            <mxPoint x="1421" y="1675.52" as="targetPoint" />
            <Array as="points">
              <mxPoint x="1244" y="1599" />
              <mxPoint x="1390" y="1599" />
            </Array>
          </mxGeometry>
        </mxCell>
        <mxCell id="DnKmSI__Tk8OOLVWlEsf-130" value="" style="endArrow=open;endFill=1;endSize=12;html=1;rounded=0;exitX=0.87;exitY=0.909;exitDx=0;exitDy=0;exitPerimeter=0;entryX=0.401;entryY=0.036;entryDx=0;entryDy=0;entryPerimeter=0;" edge="1" parent="WIyWlLk6GJQsqaUBKTNV-1" source="DnKmSI__Tk8OOLVWlEsf-142" target="DnKmSI__Tk8OOLVWlEsf-84">
          <mxGeometry width="160" relative="1" as="geometry">
            <mxPoint x="1339" y="1704.52" as="sourcePoint" />
            <mxPoint x="1190" y="1760" as="targetPoint" />
            <Array as="points" />
          </mxGeometry>
        </mxCell>
        <mxCell id="DnKmSI__Tk8OOLVWlEsf-131" value="&lt;span style=&quot;font-size: 14px;&quot;&gt;Action : Enregistrer HH:MM:SS du signal reçu&lt;/span&gt;" style="rounded=1;whiteSpace=wrap;html=1;fontSize=12;glass=0;strokeWidth=1;shadow=0;" vertex="1" parent="WIyWlLk6GJQsqaUBKTNV-1">
          <mxGeometry x="1340" y="1628" width="98.5" height="90" as="geometry" />
        </mxCell>
        <mxCell id="DnKmSI__Tk8OOLVWlEsf-133" value="" style="endArrow=open;endFill=1;endSize=12;html=1;rounded=0;entryX=1;entryY=0.5;entryDx=0;entryDy=0;exitX=0.004;exitY=0.536;exitDx=0;exitDy=0;exitPerimeter=0;" edge="1" parent="WIyWlLk6GJQsqaUBKTNV-1" source="DnKmSI__Tk8OOLVWlEsf-86" target="DnKmSI__Tk8OOLVWlEsf-83">
          <mxGeometry width="160" relative="1" as="geometry">
            <mxPoint x="1320" y="1808" as="sourcePoint" />
            <mxPoint x="1339.5" y="1809.4299999999998" as="targetPoint" />
          </mxGeometry>
        </mxCell>
        <mxCell id="DnKmSI__Tk8OOLVWlEsf-136" value="" style="endArrow=open;endFill=1;endSize=12;html=1;rounded=0;entryX=0;entryY=0.5;entryDx=0;entryDy=0;exitX=1;exitY=0.5;exitDx=0;exitDy=0;" edge="1" parent="WIyWlLk6GJQsqaUBKTNV-1" source="DnKmSI__Tk8OOLVWlEsf-80" target="DnKmSI__Tk8OOLVWlEsf-81">
          <mxGeometry width="160" relative="1" as="geometry">
            <mxPoint x="1426.07" y="1470" as="sourcePoint" />
            <mxPoint x="1426.07" y="1420" as="targetPoint" />
            <Array as="points">
              <mxPoint x="1350" y="1469" />
              <mxPoint x="1350" y="1379" />
            </Array>
          </mxGeometry>
        </mxCell>
        <mxCell id="DnKmSI__Tk8OOLVWlEsf-137" value="OUI" style="edgeLabel;html=1;align=center;verticalAlign=middle;resizable=0;points=[];" vertex="1" connectable="0" parent="DnKmSI__Tk8OOLVWlEsf-136">
          <mxGeometry x="-0.4783" y="-1" relative="1" as="geometry">
            <mxPoint x="2" y="-43" as="offset" />
          </mxGeometry>
        </mxCell>
        <mxCell id="DnKmSI__Tk8OOLVWlEsf-138" value="" style="endArrow=open;endFill=1;endSize=12;html=1;rounded=0;exitX=1;exitY=0.5;exitDx=0;exitDy=0;entryX=0;entryY=0.5;entryDx=0;entryDy=0;" edge="1" parent="WIyWlLk6GJQsqaUBKTNV-1" source="DnKmSI__Tk8OOLVWlEsf-79" target="DnKmSI__Tk8OOLVWlEsf-80">
          <mxGeometry width="160" relative="1" as="geometry">
            <mxPoint x="750" y="1469.5" as="sourcePoint" />
            <mxPoint x="1090" y="1469" as="targetPoint" />
          </mxGeometry>
        </mxCell>
        <mxCell id="DnKmSI__Tk8OOLVWlEsf-139" value="OUI" style="edgeLabel;html=1;align=center;verticalAlign=middle;resizable=0;points=[];" vertex="1" connectable="0" parent="DnKmSI__Tk8OOLVWlEsf-138">
          <mxGeometry x="-0.7308" relative="1" as="geometry">
            <mxPoint x="28" as="offset" />
          </mxGeometry>
        </mxCell>
        <mxCell id="DnKmSI__Tk8OOLVWlEsf-140" value="" style="endArrow=open;endFill=1;endSize=12;html=1;rounded=0;entryX=1;entryY=0.5;entryDx=0;entryDy=0;exitX=0;exitY=0.5;exitDx=0;exitDy=0;" edge="1" parent="WIyWlLk6GJQsqaUBKTNV-1" source="DnKmSI__Tk8OOLVWlEsf-72" target="DnKmSI__Tk8OOLVWlEsf-81">
          <mxGeometry width="160" relative="1" as="geometry">
            <mxPoint x="1460.5" y="1459" as="sourcePoint" />
            <mxPoint x="1510.5" y="1369" as="targetPoint" />
            <Array as="points">
              <mxPoint x="1510" y="1379" />
              <mxPoint x="1500" y="1379" />
            </Array>
          </mxGeometry>
        </mxCell>
        <mxCell id="DnKmSI__Tk8OOLVWlEsf-141" value="OUI" style="edgeLabel;html=1;align=center;verticalAlign=middle;resizable=0;points=[];" vertex="1" connectable="0" parent="DnKmSI__Tk8OOLVWlEsf-140">
          <mxGeometry x="-0.4783" y="-1" relative="1" as="geometry">
            <mxPoint x="-13" y="1" as="offset" />
          </mxGeometry>
        </mxCell>
        <mxCell id="DnKmSI__Tk8OOLVWlEsf-142" value="" style="html=1;points=[];perimeter=orthogonalPerimeter;fillColor=strokeColor;direction=south;" vertex="1" parent="WIyWlLk6GJQsqaUBKTNV-1">
          <mxGeometry x="1189" y="1559" width="80" height="5" as="geometry" />
        </mxCell>
        <mxCell id="DnKmSI__Tk8OOLVWlEsf-143" value="" style="endArrow=none;html=1;rounded=0;entryX=0.5;entryY=1;entryDx=0;entryDy=0;exitX=0.348;exitY=0.604;exitDx=0;exitDy=0;exitPerimeter=0;" edge="1" parent="WIyWlLk6GJQsqaUBKTNV-1" source="DnKmSI__Tk8OOLVWlEsf-142" target="DnKmSI__Tk8OOLVWlEsf-80">
          <mxGeometry width="50" height="50" relative="1" as="geometry">
            <mxPoint x="1220" y="1680" as="sourcePoint" />
            <mxPoint x="1120" y="1620" as="targetPoint" />
          </mxGeometry>
        </mxCell>
        <mxCell id="DnKmSI__Tk8OOLVWlEsf-144" value="" style="endArrow=none;html=1;rounded=0;entryX=0.5;entryY=1;entryDx=0;entryDy=0;exitX=0.13;exitY=0.713;exitDx=0;exitDy=0;exitPerimeter=0;" edge="1" parent="WIyWlLk6GJQsqaUBKTNV-1" target="DnKmSI__Tk8OOLVWlEsf-81">
          <mxGeometry width="50" height="50" relative="1" as="geometry">
            <mxPoint x="1485.9735" y="1554.6499999999996" as="sourcePoint" />
            <mxPoint x="1120" y="1529" as="targetPoint" />
            <Array as="points">
              <mxPoint x="1487" y="1489" />
              <mxPoint x="1426" y="1489" />
            </Array>
          </mxGeometry>
        </mxCell>
        <mxCell id="DnKmSI__Tk8OOLVWlEsf-146" value="NON" style="edgeLabel;html=1;align=center;verticalAlign=middle;resizable=0;points=[];" vertex="1" connectable="0" parent="DnKmSI__Tk8OOLVWlEsf-144">
          <mxGeometry x="0.5574" y="-2" relative="1" as="geometry">
            <mxPoint x="-2" y="-21" as="offset" />
          </mxGeometry>
        </mxCell>
        <mxCell id="DnKmSI__Tk8OOLVWlEsf-145" value="" style="endArrow=none;html=1;rounded=0;entryX=0.5;entryY=1;entryDx=0;entryDy=0;" edge="1" parent="WIyWlLk6GJQsqaUBKTNV-1" source="DnKmSI__Tk8OOLVWlEsf-82" target="DnKmSI__Tk8OOLVWlEsf-72">
          <mxGeometry width="50" height="50" relative="1" as="geometry">
            <mxPoint x="1524" y="1553" as="sourcePoint" />
            <mxPoint x="1120" y="1529" as="targetPoint" />
            <Array as="points">
              <mxPoint x="1524" y="1489" />
              <mxPoint x="1590" y="1489" />
            </Array>
          </mxGeometry>
        </mxCell>
        <mxCell id="DnKmSI__Tk8OOLVWlEsf-147" value="NON" style="edgeLabel;html=1;align=center;verticalAlign=middle;resizable=0;points=[];" vertex="1" connectable="0" parent="DnKmSI__Tk8OOLVWlEsf-145">
          <mxGeometry x="0.565" y="1" relative="1" as="geometry">
            <mxPoint x="1" y="-21" as="offset" />
          </mxGeometry>
        </mxCell>
        <mxCell id="DnKmSI__Tk8OOLVWlEsf-149" value="" style="shape=sumEllipse;perimeter=ellipsePerimeter;html=1;backgroundOutline=1;" vertex="1" parent="WIyWlLk6GJQsqaUBKTNV-1">
          <mxGeometry x="1580" y="1729" width="30" height="30" as="geometry" />
        </mxCell>
        <mxCell id="DnKmSI__Tk8OOLVWlEsf-150" value="" style="endArrow=none;html=1;rounded=0;entryX=0.647;entryY=0.513;entryDx=0;entryDy=0;entryPerimeter=0;exitX=0.5;exitY=0;exitDx=0;exitDy=0;" edge="1" parent="WIyWlLk6GJQsqaUBKTNV-1" source="DnKmSI__Tk8OOLVWlEsf-149" target="DnKmSI__Tk8OOLVWlEsf-82">
          <mxGeometry width="50" height="50" relative="1" as="geometry">
            <mxPoint x="1080" y="1669" as="sourcePoint" />
            <mxPoint x="1504.2545" y="1559" as="targetPoint" />
            <Array as="points">
              <mxPoint x="1595" y="1609" />
              <mxPoint x="1504" y="1609" />
            </Array>
          </mxGeometry>
        </mxCell>
        <mxCell id="DnKmSI__Tk8OOLVWlEsf-151" value="Interrupteur&lt;br&gt;Ouvert" style="rounded=0;whiteSpace=wrap;html=1;" vertex="1" parent="WIyWlLk6GJQsqaUBKTNV-1">
          <mxGeometry x="321.75" y="1639" width="106" height="40" as="geometry" />
        </mxCell>
        <mxCell id="DnKmSI__Tk8OOLVWlEsf-152" value="Interrupteur&lt;br&gt;Fermé" style="rounded=0;whiteSpace=wrap;html=1;" vertex="1" parent="WIyWlLk6GJQsqaUBKTNV-1">
          <mxGeometry x="322" y="1790" width="106" height="40" as="geometry" />
        </mxCell>
        <mxCell id="DnKmSI__Tk8OOLVWlEsf-155" value="" style="endArrow=none;html=1;rounded=0;entryX=0;entryY=0.5;entryDx=0;entryDy=0;exitX=1;exitY=0.5;exitDx=0;exitDy=0;" edge="1" parent="WIyWlLk6GJQsqaUBKTNV-1" source="DnKmSI__Tk8OOLVWlEsf-6" target="DnKmSI__Tk8OOLVWlEsf-74">
          <mxGeometry width="50" height="50" relative="1" as="geometry">
            <mxPoint x="550" y="1280" as="sourcePoint" />
            <mxPoint x="600" y="1230" as="targetPoint" />
          </mxGeometry>
        </mxCell>
        <mxCell id="DnKmSI__Tk8OOLVWlEsf-156" value="" style="endArrow=none;html=1;rounded=0;entryX=0;entryY=0.5;entryDx=0;entryDy=0;exitX=0.5;exitY=1;exitDx=0;exitDy=0;" edge="1" parent="WIyWlLk6GJQsqaUBKTNV-1" source="DnKmSI__Tk8OOLVWlEsf-6" target="DnKmSI__Tk8OOLVWlEsf-152">
          <mxGeometry width="50" height="50" relative="1" as="geometry">
            <mxPoint x="550" y="1870" as="sourcePoint" />
            <mxPoint x="600" y="1820" as="targetPoint" />
            <Array as="points">
              <mxPoint x="165" y="1810" />
            </Array>
          </mxGeometry>
        </mxCell>
        <mxCell id="DnKmSI__Tk8OOLVWlEsf-157" value="" style="endArrow=classic;html=1;rounded=0;exitX=0;exitY=0.5;exitDx=0;exitDy=0;entryX=1;entryY=0.5;entryDx=0;entryDy=0;" edge="1" parent="WIyWlLk6GJQsqaUBKTNV-1" source="DnKmSI__Tk8OOLVWlEsf-59" target="DnKmSI__Tk8OOLVWlEsf-0">
          <mxGeometry width="50" height="50" relative="1" as="geometry">
            <mxPoint x="770" y="320" as="sourcePoint" />
            <mxPoint x="430" y="410" as="targetPoint" />
          </mxGeometry>
        </mxCell>
        <mxCell id="DnKmSI__Tk8OOLVWlEsf-158" value="" style="endArrow=open;endFill=1;endSize=12;html=1;rounded=0;entryX=0;entryY=0.5;entryDx=0;entryDy=0;exitX=1;exitY=0.5;exitDx=0;exitDy=0;" edge="1" parent="WIyWlLk6GJQsqaUBKTNV-1" source="DnKmSI__Tk8OOLVWlEsf-63" target="DnKmSI__Tk8OOLVWlEsf-62">
          <mxGeometry width="160" relative="1" as="geometry">
            <mxPoint x="250" y="851" as="sourcePoint" />
            <mxPoint x="180" y="851" as="targetPoint" />
          </mxGeometry>
        </mxCell>
        <mxCell id="DnKmSI__Tk8OOLVWlEsf-159" value="" style="endArrow=none;html=1;rounded=0;entryX=0.5;entryY=1;entryDx=0;entryDy=0;" edge="1" parent="WIyWlLk6GJQsqaUBKTNV-1" target="DnKmSI__Tk8OOLVWlEsf-82">
          <mxGeometry width="50" height="50" relative="1" as="geometry">
            <mxPoint x="1524" y="1553" as="sourcePoint" />
            <mxPoint x="1590" y="1429" as="targetPoint" />
            <Array as="points" />
          </mxGeometry>
        </mxCell>
        <mxCell id="DnKmSI__Tk8OOLVWlEsf-82" value="" style="html=1;points=[];perimeter=orthogonalPerimeter;fillColor=strokeColor;direction=south;" vertex="1" parent="WIyWlLk6GJQsqaUBKTNV-1">
          <mxGeometry x="1460.75" y="1550" width="90.5" height="5" as="geometry" />
        </mxCell>
        <mxCell id="DnKmSI__Tk8OOLVWlEsf-161" value="" style="endArrow=open;endFill=1;endSize=12;html=1;rounded=0;exitX=0.5;exitY=1;exitDx=0;exitDy=0;entryX=0.5;entryY=0;entryDx=0;entryDy=0;" edge="1" parent="WIyWlLk6GJQsqaUBKTNV-1">
          <mxGeometry width="160" relative="1" as="geometry">
            <mxPoint x="826" y="1360" as="sourcePoint" />
            <mxPoint x="826" y="1421" as="targetPoint" />
          </mxGeometry>
        </mxCell>
        <mxCell id="DnKmSI__Tk8OOLVWlEsf-162" value="" style="endArrow=open;endFill=1;endSize=12;html=1;rounded=0;entryX=1;entryY=0.5;entryDx=0;entryDy=0;exitX=0;exitY=0.5;exitDx=0;exitDy=0;" edge="1" target="DnKmSI__Tk8OOLVWlEsf-164" parent="WIyWlLk6GJQsqaUBKTNV-1" source="DnKmSI__Tk8OOLVWlEsf-79">
          <mxGeometry width="160" relative="1" as="geometry">
            <mxPoint x="776" y="1471" as="sourcePoint" />
            <mxPoint x="1126" y="1456" as="targetPoint" />
          </mxGeometry>
        </mxCell>
        <mxCell id="DnKmSI__Tk8OOLVWlEsf-163" value="NON" style="edgeLabel;html=1;align=center;verticalAlign=middle;resizable=0;points=[];" vertex="1" connectable="0" parent="DnKmSI__Tk8OOLVWlEsf-162">
          <mxGeometry x="0.4892" y="-2" relative="1" as="geometry">
            <mxPoint x="25" y="2" as="offset" />
          </mxGeometry>
        </mxCell>
        <mxCell id="DnKmSI__Tk8OOLVWlEsf-164" value="" style="shape=sumEllipse;perimeter=ellipsePerimeter;html=1;backgroundOutline=1;" vertex="1" parent="WIyWlLk6GJQsqaUBKTNV-1">
          <mxGeometry x="656" y="1455" width="30" height="30" as="geometry" />
        </mxCell>
        <mxCell id="DnKmSI__Tk8OOLVWlEsf-165" value="" style="endArrow=classic;html=1;rounded=0;exitX=0;exitY=0.5;exitDx=0;exitDy=0;entryX=1;entryY=0.5;entryDx=0;entryDy=0;" edge="1" parent="WIyWlLk6GJQsqaUBKTNV-1" source="DnKmSI__Tk8OOLVWlEsf-67" target="DnKmSI__Tk8OOLVWlEsf-73">
          <mxGeometry width="50" height="50" relative="1" as="geometry">
            <mxPoint x="1078.75" y="1059" as="sourcePoint" />
            <mxPoint x="470" y="1061" as="targetPoint" />
          </mxGeometry>
        </mxCell>
        <mxCell id="DnKmSI__Tk8OOLVWlEsf-166" value="" style="endArrow=classic;html=1;rounded=0;exitX=0;exitY=0.5;exitDx=0;exitDy=0;entryX=1;entryY=0.5;entryDx=0;entryDy=0;" edge="1" parent="WIyWlLk6GJQsqaUBKTNV-1">
          <mxGeometry width="50" height="50" relative="1" as="geometry">
            <mxPoint x="1130" y="1220" as="sourcePoint" />
            <mxPoint x="408" y="1220" as="targetPoint" />
          </mxGeometry>
        </mxCell>
        <mxCell id="DnKmSI__Tk8OOLVWlEsf-167" value="" style="endArrow=classic;html=1;rounded=0;exitX=0;exitY=0.5;exitDx=0;exitDy=0;entryX=1;entryY=0.5;entryDx=0;entryDy=0;" edge="1" parent="WIyWlLk6GJQsqaUBKTNV-1">
          <mxGeometry width="50" height="50" relative="1" as="geometry">
            <mxPoint x="1149" y="1658.41" as="sourcePoint" />
            <mxPoint x="427" y="1658.41" as="targetPoint" />
          </mxGeometry>
        </mxCell>
        <mxCell id="DnKmSI__Tk8OOLVWlEsf-168" value="" style="endArrow=classic;html=1;rounded=0;exitX=0;exitY=0.5;exitDx=0;exitDy=0;entryX=1;entryY=0.5;entryDx=0;entryDy=0;" edge="1" parent="WIyWlLk6GJQsqaUBKTNV-1">
          <mxGeometry width="50" height="50" relative="1" as="geometry">
            <mxPoint x="1150" y="1809.41" as="sourcePoint" />
            <mxPoint x="428" y="1809.41" as="targetPoint" />
          </mxGeometry>
        </mxCell>
        <mxCell id="DnKmSI__Tk8OOLVWlEsf-169" value="&lt;font style=&quot;font-size: 30px;&quot;&gt;Diagramme d&#39;Activité du&amp;nbsp;&lt;br&gt;Système de contrôle d&#39;Etat par Mouvement (CEM)&lt;/font&gt;" style="text;html=1;align=center;verticalAlign=middle;resizable=0;points=[];autosize=1;strokeColor=none;fillColor=none;" vertex="1" parent="WIyWlLk6GJQsqaUBKTNV-1">
          <mxGeometry x="480" y="-189" width="690" height="90" as="geometry" />
        </mxCell>
      </root>
    </mxGraphModel>
  </diagram>
</mxfile>
